<svg xmlns="http://www.w3.org/2000/svg" width="256" height="256" viewBox="0 0 100 100"><rect width="100" height="100" rx="20" fill="#2e66ff"></rect><path d="M19.78 65.14Q12.85 65.14 8.69 61.40L8.69 61.40L10.04 58.76Q12.22 60.60 14.51 61.40Q16.80 62.20 19.82 62.20L19.82 62.20Q23.39 62.20 25.32 60.81Q27.26 59.43 27.26 56.91L27.26 56.91Q27.26 55.44 26.33 54.51Q25.41 53.59 23.90 53.04Q22.38 52.50 19.82 51.91L19.82 51.91Q16.38 51.11 14.17 50.23Q11.97 49.35 10.60 47.71Q9.24 46.07 9.24 43.43L9.24 43.43Q9.24 40.91 10.56 38.95Q11.88 37.00 14.34 35.93Q16.80 34.86 20.03 34.86L20.03 34.86Q23.10 34.86 25.77 35.82Q28.43 36.79 30.28 38.60L30.28 38.60L28.98 41.24Q26.88 39.44 24.72 38.62Q22.55 37.80 20.03 37.80L20.03 37.80Q16.59 37.80 14.64 39.25Q12.68 40.70 12.68 43.30L12.68 43.30Q12.68 45.53 14.40 46.66Q16.13 47.79 19.61 48.59L19.61 48.59Q23.43 49.52 25.62 50.29Q27.80 51.07 29.25 52.62Q30.70 54.18 30.70 56.78L30.70 56.78Q30.70 59.30 29.38 61.19Q28.05 63.08 25.58 64.11Q23.10 65.14 19.78 65.14L19.78 65.14ZM46.28 64.80L42.80 64.80L42.80 38.13L32.51 38.13L32.51 35.19L56.61 35.19L56.61 38.13L46.28 38.13L46.28 64.80ZM60.77 64.80L60.77 35.19L72.49 35.19Q77.15 35.19 79.74 37.46Q82.32 39.73 82.32 43.89L82.32 43.89Q82.32 48.05 79.72 50.36Q77.11 52.67 72.49 52.67L72.49 52.67L64.22 52.67L64.22 64.80L60.77 64.80ZM64.22 49.81L72.16 49.81Q78.92 49.81 78.92 43.89L78.92 43.89Q78.92 38.05 72.16 38.05L72.16 38.05L64.22 38.05L64.22 49.81ZM91.31 64.80L87.86 64.80L87.86 35.19L91.31 35.19L91.31 64.80Z" fill="#fff"></path></svg>